<svg version="1" xmlns="http://www.w3.org/2000/svg" width="394.667" height="394.667" viewBox="0 0 296.000000 296.000000"><path d="M159.3 21.1c-3.1 1.1-3.7 2.7-7.3 18.4-1.7 7.7-3.4 14.7-3.6 15.5-.3 1.6-7.3 31.3-7.9 34-.2.8-1 4.2-1.7 7.5-2.8 11.6-1 13.4 17.1 17.8 15.5 3.7 18.3 3.7 21.3-.4 1-1.3 3.1-8.3 4.8-15.4 1.6-7.2 5.5-23.6 8.5-36.5 7-29.5 7-29.4 5.5-32.9-1.7-4.1-4.9-5.3-17.5-6.6-3.3-.3-7.3-.8-9-1-1.6-.3-4.1-.7-5.5-.9-1.4-.2-3.5 0-4.7.5z"/><path d="M92.5 35.6C52.9 56.1 28.5 89.7 22 133c-1.1 7.3-1.4 25-.6 30 .2 1.4.7 4.7 1.1 7.5 1.3 9.7 5.5 23.1 11.3 35.5 3 6.7 11.4 19.5 16.5 25.5 22.1 25.8 46.9 39.3 82.2 45 5.1.8 25.4.8 31.4-.1 36.2-5.1 67.6-24.2 88.2-53.4 16.3-23.1 23.9-49.2 22.6-78-.7-15.9-2.1-23.3-6.9-37.5-4.7-13.7-22.1-42.6-26.5-43.9-4.7-1.4-7-1.2-9.9.8-13.4 9-21.3 15.1-22.4 17.1-1.9 3.6-.5 8 5 15.6 20.6 28.4 24.3 60.3 10.2 89.4-14 29-42.7 47.5-74.2 47.8-13.6.1-18-.6-28.9-4.2C71.6 213.5 48.8 156 73.7 110c8.8-16.2 21.5-28.1 40-37.4 11.3-5.6 12.2-9 5.5-21.6-8.9-16.9-9.6-17.9-12.6-19-4.2-1.5-4.3-1.4-14.1 3.6z"/></svg>