<?xml version="1.0" encoding="utf-8"?>
<!-- Generator: Adobe Illustrator 23.0.1, SVG Export Plug-In . SVG Version: 6.00 Build 0)  -->
<svg version="1.1" id="Layer_1" xmlns="http://www.w3.org/2000/svg" xmlns:xlink="http://www.w3.org/1999/xlink" x="0px" y="0px"
	 viewBox="0 0 100 100" style="enable-background:new 0 0 100 100;" xml:space="preserve">
<style type="text/css">
	.st0{fill:#FFFFFF;}
	.st1{clip-path:url(#SVGID_2_);}
</style>
<g>
	<path class="st0" d="M73.25,59H59v14.25h14.25V59z M70.87,70.87h-9.5v-9.5h9.5V70.87z M70.87,70.87"/>
	<rect x="63.76" y="63.76" class="st0" width="4.74" height="4.74"/>
	<path class="st0" d="M59,97h14.25V82.75H59V97z M61.38,85.13h9.5v9.5h-9.5V85.13z M61.38,85.13"/>
	<rect x="63.76" y="87.5" class="st0" width="4.74" height="4.74"/>
	<path class="st0" d="M82.75,59v14.25H97V59H82.75z M94.62,70.87h-9.5v-9.5h9.5V70.87z M94.62,70.87"/>
	<rect x="87.5" y="63.76" class="st0" width="4.74" height="4.74"/>
	<path class="st0" d="M63.76,75.63H59v4.74h7.12v-2.38h-2.36V75.63z M63.76,75.63"/>
	<rect x="75.63" y="80.37" class="st0" width="4.74" height="4.76"/>
	<rect x="66.12" y="75.63" class="st0" width="4.76" height="2.37"/>
	<path class="st0" d="M80.37,87.5h-4.74v2.36h2.36v2.38h2.38v-2.38V87.5z M80.37,87.5"/>
	<path class="st0" d="M73.25,75.63v2.36h-2.38v2.38h4.76v-4.74H73.25z M73.25,75.63"/>
	<rect x="77.99" y="68.5" class="st0" width="2.38" height="4.76"/>
	<path class="st0" d="M80.37,77.99v2.38h4.76v-4.74h-7.13v2.36H80.37z M80.37,77.99"/>
	<rect x="75.63" y="73.25" class="st0" width="2.37" height="2.38"/>
	<rect x="80.37" y="92.24" class="st0" width="4.76" height="4.76"/>
	<rect x="75.63" y="92.24" class="st0" width="2.37" height="4.76"/>
	<rect x="80.37" y="85.13" class="st0" width="2.38" height="2.38"/>
	<path class="st0" d="M80.37,66.12v-4.74h-2.38V59h-2.36v9.5h2.36v-2.38H80.37z M80.37,66.12"/>
	<rect x="87.5" y="92.24" class="st0" width="2.37" height="4.76"/>
	<rect x="87.5" y="87.5" class="st0" width="4.74" height="2.37"/>
	<rect x="85.13" y="89.87" class="st0" width="2.38" height="2.38"/>
	<rect x="82.75" y="87.5" class="st0" width="2.38" height="2.37"/>
	<path class="st0" d="M92.24,82.75v2.38h2.38v2.38H97v-4.76h-2.38H92.24z M92.24,82.75"/>
	<path class="st0" d="M94.62,89.87h-2.38V97H97v-4.76h-2.38V89.87z M94.62,89.87"/>
	<path class="st0" d="M82.75,82.75v2.38h7.12v-4.76h-4.74v2.38H82.75z M82.75,82.75"/>
	<path class="st0" d="M87.5,75.63v2.36h4.74v2.38H97v-4.74h-4.76H87.5z M87.5,75.63"/>
</g>
<g>
	<defs>
		<polygon id="SVGID_1_" points="100,0 100,55 55,55 55,99 0,99 0,0 		"/>
	</defs>
	<clipPath id="SVGID_2_">
		<use xlink:href="#SVGID_1_"  style="overflow:visible;"/>
	</clipPath>
	<g class="st1">
		<path class="st0" d="M96.6,7.65H83.9c0.05-1.41,0.07-2.82,0.07-4.24c0-1.6-1.3-2.9-2.9-2.9H18.93c-1.6,0-2.9,1.3-2.9,2.9
			c0,1.42,0.03,2.84,0.07,4.24H3.4c-1.6,0-2.9,1.3-2.9,2.9c0,13,3.4,25.26,9.56,34.53c6.1,9.16,14.22,14.42,22.99,14.93
			c1.99,2.16,4.09,3.93,6.28,5.27v12.89h-4.87c-5.88,0-10.67,4.79-10.67,10.67v4.87h-0.21c-1.6,0-2.9,1.3-2.9,2.9
			c0,1.6,1.3,2.9,2.9,2.9h52.81c1.6,0,2.9-1.3,2.9-2.9c0-1.6-1.3-2.9-2.9-2.9H76.2v-4.87c0-5.88-4.78-10.67-10.67-10.67h-4.87V65.28
			c2.19-1.35,4.29-3.11,6.28-5.27c8.77-0.51,16.89-5.77,22.99-14.93c6.17-9.27,9.56-21.53,9.56-34.53C99.5,8.94,98.2,7.65,96.6,7.65
			L96.6,7.65z M14.89,41.86c-5.09-7.64-8.08-17.64-8.53-28.41h10.07c1.05,13.24,4.15,25.47,9.01,35.19
			c0.77,1.55,1.58,3.01,2.42,4.38C23.04,51.2,18.57,47.39,14.89,41.86L14.89,41.86z M70.4,88.83v4.87H29.6v-4.87
			c0-2.68,2.18-4.87,4.87-4.87h31.07C68.22,83.97,70.4,86.15,70.4,88.83L70.4,88.83z M54.87,78.17h-9.73V67.8
			c1.59,0.42,3.22,0.64,4.87,0.64s3.27-0.22,4.87-0.64V78.17z M56.66,60.9c-0.13,0.05-0.26,0.12-0.38,0.19
			c-2.05,1.02-4.16,1.55-6.29,1.55c-2.13,0-4.23-0.53-6.28-1.55c-0.12-0.07-0.25-0.14-0.38-0.19c-2.27-1.2-4.47-3.02-6.56-5.4
			c-0.11-0.16-0.23-0.3-0.37-0.43c-2.07-2.45-4.01-5.47-5.78-9.02C25.3,35.38,22.22,21.36,21.87,6.3h56.26
			c-0.35,15.06-3.43,29.08-8.76,39.74c-1.77,3.55-3.72,6.57-5.78,9.02c-0.14,0.13-0.26,0.28-0.37,0.43
			C61.14,57.88,58.94,59.69,56.66,60.9L56.66,60.9z M85.11,41.86c-3.68,5.53-8.14,9.34-12.97,11.16c0.84-1.38,1.65-2.84,2.42-4.38
			c4.86-9.71,7.96-21.95,9.01-35.19h10.07C93.18,24.21,90.19,34.21,85.11,41.86L85.11,41.86z M85.11,41.86"/>
	</g>
</g>
</svg>
